<svg width="32" height="32" viewBox="0 0 24 24" fill="none" xmlns="http://www.w3.org/2000/svg">
  <rect width="24" height="24" rx="4" fill="#06060b"/>
  <path d="M12 2.5A9.5 9.5 0 0 1 19.2 6" stroke="#f5a623" stroke-width="1.5" stroke-linecap="round"/>
  <path d="M21.5 12A9.5 9.5 0 0 1 18 19.2" stroke="#f5a623" stroke-width="1.5" stroke-linecap="round"/>
  <path d="M12 21.5A9.5 9.5 0 0 1 4.8 18" stroke="#f5a623" stroke-width="1.5" stroke-linecap="round"/>
  <path d="M2.5 12A9.5 9.5 0 0 1 6 4.8" stroke="#f5a623" stroke-width="1.5" stroke-linecap="round"/>
  <circle cx="12" cy="12" r="4" stroke="#f5a623" stroke-width="1.5"/>
  <circle cx="12" cy="12" r="1.5" fill="#f5a623"/>
  <line x1="12" y1="0.5" x2="12" y2="3.5" stroke="#f5a623" stroke-width="1.5" stroke-linecap="round"/>
  <line x1="12" y1="20.5" x2="12" y2="23.5" stroke="#f5a623" stroke-width="1.5" stroke-linecap="round"/>
  <line x1="0.5" y1="12" x2="3.5" y2="12" stroke="#f5a623" stroke-width="1.5" stroke-linecap="round"/>
  <line x1="20.5" y1="12" x2="23.5" y2="12" stroke="#f5a623" stroke-width="1.5" stroke-linecap="round"/>
</svg>
